# xmcd
#
# Track frame offsets: 
#        150
#        20687
#        33168
#        47728
#        63193
#        80340
#        93692
#        110355
#        127180
#        148207
#        172867
#        192330
#        214245
#
# Disc length: 3073 seconds
#
# Revision: 0
# Processed by: cddbd v1.5.2PL0 Copyright (c) Steve Scherf et al.
# Submitted via: ExactAudioCopyFreeDBPlugin 1.0
#
DISCID=b80bff0d
DTITLE=37A - STE20试音极品TESTCD
DYEAR=2016
DGENRE=STE
TTITLE0=赞歌
TTITLE1=红色娘子定军
TTITLE2=毛主席话儿记上心上
TTITLE3=解放军同志请你停一停
TTITLE4=洪湖水浪打浪
TTITLE5=共产党来了苦变甜
TTITLE6=绣荷包
TTITLE7=月亮走我也走
TTITLE8=北京的金山上
TTITLE9=怀念战友
TTITLE10=在那桃花盛开的地方
TTITLE11=花儿为什么这样红
TTITLE12=弹起我心爱的土琵琶
EXTD=
EXTT0=
EXTT1=
EXTT2=
EXTT3=
EXTT4=
EXTT5=
EXTT6=
EXTT7=
EXTT8=
EXTT9=
EXTT10=
EXTT11=
EXTT12=
PLAYORDER=
